<svg width="11" height="6" viewBox="0 0 11 6" fill="none" xmlns="http://www.w3.org/2000/svg">
<path d="M5.48177 5.47916C5.37066 5.47916 5.26649 5.46194 5.16927 5.42749C5.07205 5.39305 4.98177 5.33388 4.89844 5.24999L1.0651 1.41666C0.912326 1.26388 0.835938 1.06944 0.835938 0.833328C0.835938 0.597217 0.912326 0.402772 1.0651 0.249995C1.21788 0.0972168 1.41233 0.0208282 1.64844 0.0208282C1.88455 0.0208282 2.07899 0.0972168 2.23177 0.249995L5.48177 3.49999L8.73177 0.249995C8.88455 0.0972168 9.07899 0.0208282 9.3151 0.0208282C9.55122 0.0208282 9.74566 0.0972168 9.89844 0.249995C10.0512 0.402772 10.1276 0.597217 10.1276 0.833328C10.1276 1.06944 10.0512 1.26388 9.89844 1.41666L6.0651 5.24999C5.98177 5.33333 5.89149 5.39249 5.79427 5.42749C5.69705 5.46249 5.59288 5.47972 5.48177 5.47916Z" fill="white"/>
</svg>
