<svg width="19" height="19" viewBox="0 0 19 19" fill="none" xmlns="http://www.w3.org/2000/svg">
<path d="M17.8134 10.9579C17.1923 11.1229 16.5522 11.2064 15.9095 11.2063C13.9524 11.2063 12.1145 10.4455 10.734 9.06501C9.82749 8.15324 9.17575 7.0198 8.84378 5.77765C8.51181 4.5355 8.51121 3.22804 8.84202 1.98559C8.88334 1.83025 8.88308 1.66677 8.84126 1.51156C8.79945 1.35634 8.71756 1.21486 8.6038 1.10128C8.49005 0.987713 8.34842 0.906053 8.19314 0.864494C8.03786 0.822935 7.87439 0.82294 7.71911 0.864507C6.16367 1.27901 4.74458 2.09525 3.60419 3.23134C0.0310248 6.80451 0.0310248 12.6208 3.60419 16.1958C4.45351 17.0498 5.46377 17.7269 6.57652 18.188C7.68926 18.649 8.88239 18.8847 10.0869 18.8816C11.291 18.885 12.4839 18.6494 13.5963 18.1885C14.7088 17.7276 15.7187 17.0506 16.5677 16.1967C17.7046 15.0561 18.5213 13.6362 18.9354 12.0799C18.9766 11.9246 18.9762 11.7613 18.9345 11.6062C18.8927 11.4511 18.8109 11.3097 18.6973 11.1961C18.5837 11.0825 18.4423 11.0007 18.2872 10.9589C18.1321 10.9171 17.9687 10.9168 17.8134 10.9579ZM15.2724 14.9005C14.5932 15.5835 13.7852 16.125 12.8952 16.4937C12.0053 16.8623 11.0511 17.0508 10.0878 17.0483C9.12417 17.0507 8.16965 16.862 7.27941 16.4932C6.38917 16.1244 5.58088 15.5827 4.90127 14.8996C2.04311 12.0405 2.04311 7.38751 4.90127 4.52842C5.45357 3.97675 6.0912 3.51772 6.78961 3.16901C6.68738 4.48814 6.87115 5.8138 7.32836 7.05539C7.78557 8.29697 8.50544 9.42521 9.43877 10.363C10.3745 11.2993 11.5024 12.0211 12.7445 12.4787C13.9866 12.9362 15.3133 13.1186 16.6328 13.0131C16.2822 13.7103 15.823 14.3474 15.2724 14.9005Z" fill="#32475C" fill-opacity="0.87"/>
</svg>
