<svg width="21" height="20" viewBox="0 0 21 20" fill="none" xmlns="http://www.w3.org/2000/svg">
<path d="M11.5976 12.8142L9.2693 10.5133L9.2968 10.4858C10.8498 8.75984 12.01 6.71765 12.6976 4.49999H15.3835V2.66666H8.9668V0.833328H7.13346V2.66666H0.716797V4.49999H10.956C10.3418 6.25999 9.37013 7.9375 8.05013 9.40416C7.19763 8.46 6.4918 7.42416 5.93263 6.33333H4.0993C4.76846 7.8275 5.68513 9.23916 6.83096 10.5133L2.16513 15.115L3.4668 16.4167L8.05013 11.8333L10.901 14.6842L11.5976 12.8142ZM16.7585 8.16666H14.9251L10.8001 19.1667H12.6335L13.6601 16.4167H18.0143L19.0501 19.1667H20.8835L16.7585 8.16666ZM14.3568 14.5833L15.8418 10.6142L17.3268 14.5833H14.3568Z" fill="#32475C" fill-opacity="0.87"/>
</svg>
